<?xml version="1.0" standalone="no"?>
<!DOCTYPE svg PUBLIC "-//W3C//DTD SVG 20010904//EN"
 "http://www.w3.org/TR/2001/REC-SVG-20010904/DTD/svg10.dtd">
<svg version="1.0" xmlns="http://www.w3.org/2000/svg"
 width="512.000000pt" height="512.000000pt" viewBox="0 0 512.000000 512.000000"
 preserveAspectRatio="xMidYMid meet">
<metadata>
Created by potrace 1.14, written by Peter Selinger 2001-2017
</metadata>
<g transform="translate(0.000000,512.000000) scale(0.100000,-0.100000)"
fill="#000000" stroke="none">
<path d="M0 2560 l0 -2560 2560 0 2560 0 0 2560 0 2560 -2560 0 -2560 0 0
-2560z m1440 0 l0 -1280 -138 0 c-191 0 -182 -8 -182 176 l0 144 89 0 c70 0
93 4 110 18 l21 17 3 1088 c2 1065 2 1089 21 1103 11 8 32 14 48 14 l28 0 0
-1280z m618 1264 l22 -15 0 -1265 0 -1264 -160 0 -160 0 0 395 0 395 77 0
c126 0 113 -100 113 882 0 835 0 848 20 868 24 24 57 26 88 4z m642 -4 c20
-20 20 -33 20 -1280 l0 -1260 -160 0 -160 0 0 640 0 640 58 0 c106 0 97 -60
100 636 3 686 -2 644 79 644 30 0 49 -6 63 -20z m638 4 l22 -15 0 -1265 0
-1264 -160 0 -160 0 0 880 0 880 43 0 c86 0 82 -20 85 396 3 425 -2 404 91
404 35 0 65 -6 79 -16z m640 0 l22 -15 0 -1246 c0 -1146 -1 -1248 -17 -1265
-14 -16 -33 -18 -160 -18 l-143 0 0 1120 0 1120 23 0 c12 0 33 7 45 16 20 14
22 23 22 117 0 106 11 165 32 179 24 14 152 9 176 -8z"/>
</g>
</svg>
